<?xml version="1.0" standalone="no"?>
<!DOCTYPE svg PUBLIC "-//W3C//DTD SVG 20010904//EN"
 "http://www.w3.org/TR/2001/REC-SVG-20010904/DTD/svg10.dtd">
<svg version="1.0" xmlns="http://www.w3.org/2000/svg"
 width="1100.000000pt" height="1100.000000pt" viewBox="0 0 1100.000000 1100.000000"
 preserveAspectRatio="xMidYMid meet">
<metadata>
Created by potrace 1.14, written by Peter Selinger 2001-2017
</metadata>
<g transform="translate(0.000000,1100.000000) scale(0.100000,-0.100000)"
fill="#000000" stroke="none">
<path d="M5095 9360 c-912 -47 -1690 -203 -2480 -499 -148 -55 -370 -153 -520
-229 -1035 -524 -1660 -1237 -1771 -2020 -10 -74 -14 -182 -12 -380 2 -372 2
-413 1 -742 0 -157 0 -325 0 -375 1 -49 0 -214 -2 -365 -5 -361 15 -497 110
-756 285 -782 1124 -1477 2299 -1903 567 -206 1053 -321 1710 -405 710 -90
1448 -90 2164 0 639 81 1130 196 1686 396 579 209 1066 475 1485 811 114 92
372 347 457 453 200 247 369 574 433 837 49 198 58 314 51 627 -4 157 -6 317
-4 355 4 83 4 552 1 645 -2 36 0 187 3 335 10 440 -24 652 -154 952 -178 413
-517 806 -997 1154 -748 544 -1894 939 -3100 1068 -358 39 -1013 59 -1360 41z
m168 -284 c28 -21 61 1 -333 -226 -664 -383 -1006 -581 -1174 -679 -76 -44
-140 -81 -142 -81 -2 0 -32 -17 -66 -38 -35 -21 -216 -127 -403 -234 -187
-107 -447 -257 -578 -332 -131 -75 -245 -140 -253 -143 -10 -4 -14 4 -14 30 0
32 5 38 55 66 31 18 60 29 65 26 5 -3 20 0 34 6 20 9 29 9 41 -1 13 -11 15 -8
15 23 0 32 5 38 53 66 29 16 62 31 72 31 11 1 37 2 58 2 35 1 37 3 37 33 0 28
6 35 53 61 52 29 75 35 135 35 29 0 32 3 32 32 0 28 6 36 49 60 27 15 60 27
72 27 13 0 31 4 38 9 9 6 22 6 33 0 15 -8 18 -6 18 14 0 30 16 49 66 80 42 26
48 28 117 29 34 1 37 4 37 30 0 23 9 34 48 58 26 16 58 30 72 30 14 0 31 4 39
9 9 6 24 6 38 0 17 -6 23 -5 22 4 -5 42 3 57 48 83 45 26 76 34 135 36 21 1
27 7 32 33 5 23 16 37 46 54 53 29 134 50 154 39 13 -7 16 -3 16 24 0 29 6 37
48 62 47 29 79 38 140 37 29 0 32 3 32 30 0 22 9 34 40 55 22 15 59 31 83 36
55 12 59 12 79 3 14 -5 17 -2 16 17 0 12 0 28 1 35 2 17 101 75 117 69 8 -3
25 0 39 6 19 8 28 8 40 -2 13 -11 15 -8 15 23 0 31 5 39 48 65 40 25 81 39
127 43 6 1 18 -2 28 -6 14 -6 17 -2 17 28 0 31 5 38 47 63 47 27 79 36 141 35
30 0 32 3 32 33 0 29 6 36 48 59 53 30 69 32 95 13z m589 -22 c31 -21 38 -29
26 -32 -22 -4 -110 47 -102 60 7 12 21 7 76 -28z m191 -110 c44 -23 58 -35 51
-45 -6 -10 -104 39 -104 53 0 12 18 10 53 -8z m228 -131 c50 -28 61 -43 34
-43 -21 0 -107 55 -99 63 10 10 11 10 65 -20z m225 -129 c30 -17 42 -30 36
-36 -10 -10 -112 40 -112 55 0 14 32 6 76 -19z m254 -156 c0 -15 -24 -8 -74
21 -29 17 -43 31 -35 34 16 5 109 -41 109 -55z m178 -94 c29 -17 41 -29 34
-36 -10 -10 -95 32 -108 53 -11 18 30 8 74 -17z m224 -130 c31 -21 38 -29 26
-32 -22 -4 -110 47 -102 60 7 12 21 7 76 -28z m191 -110 c44 -23 58 -35 51
-45 -6 -10 -104 39 -104 53 0 12 18 10 53 -8z m277 -166 c0 -16 -31 -8 -76 21
-29 18 -41 30 -33 34 16 5 109 -41 109 -55z m172 -94 c34 -17 47 -29 40 -36
-7 -7 -26 -1 -61 18 -48 27 -64 44 -41 44 6 0 34 -12 62 -26z m253 -148 c19
-15 19 -15 1 -16 -29 0 -119 52 -104 61 12 7 65 -16 103 -45z m183 -102 c29
-17 41 -29 34 -36 -6 -6 -27 0 -61 19 -28 17 -48 33 -44 36 11 12 25 8 71 -19z
m235 -136 c26 -18 28 -23 14 -26 -17 -3 -107 43 -107 55 0 12 63 -8 93 -29z
m203 -117 c26 -16 42 -31 36 -35 -13 -8 -112 40 -112 54 0 18 29 11 76 -19z
m-6379 -96 c2 -5 -30 -28 -70 -51 -39 -22 -132 -75 -205 -117 -73 -42 -135
-77 -138 -77 -2 0 -17 -8 -32 -19 -32 -22 -183 -111 -188 -111 -2 0 -4 15 -4
34 0 30 6 38 49 66 38 24 62 32 105 33 53 2 55 3 58 32 2 24 13 36 56 62 30
17 60 29 67 27 7 -3 23 -1 34 6 15 8 27 8 41 0 18 -10 20 -8 20 23 0 30 6 38
52 66 28 18 59 30 69 28 9 -3 23 -1 30 4 17 11 51 7 56 -6z m6584 -22 c50 -29
61 -43 33 -43 -23 0 -105 50 -98 61 8 13 11 12 65 -18z m220 -130 c31 -16 46
-30 40 -36 -11 -11 -113 42 -105 54 8 13 11 12 65 -18z m228 -128 c44 -27 60
-66 19 -44 -82 43 -109 62 -96 70 16 11 25 8 77 -26z m-7689 -85 c10 -6 11
-12 5 -19 -10 -9 -169 -102 -196 -114 -8 -3 -45 -26 -84 -49 l-70 -43 -3 -123
c-1 -67 1 -122 5 -122 4 0 26 11 48 25 51 31 55 31 110 -2 35 -22 45 -34 45
-54 0 -21 -10 -31 -50 -53 -27 -15 -50 -30 -51 -34 -1 -9 -6 -106 -8 -159 l-1
-41 -106 -62 -106 -62 -42 22 c-59 33 -66 40 -66 64 0 17 17 32 75 65 l75 43
0 94 c0 81 3 97 20 114 11 11 25 20 31 20 27 0 -3 24 -96 77 -127 73 -133 92
-51 141 45 26 59 31 75 22 18 -9 20 -6 23 22 2 27 12 39 51 65 27 18 58 33 70
33 12 1 39 2 60 2 34 1 37 4 37 30 0 23 9 34 54 63 34 21 61 32 73 29 12 -3
24 -1 27 5 9 13 26 14 46 1z m7897 -35 c41 -25 56 -45 32 -45 -17 0 -109 52
-109 62 0 15 33 8 77 -17z m213 -125 c44 -23 59 -40 34 -40 -17 0 -104 46
-104 55 0 11 33 4 70 -15z m-29 -306 l78 -46 3 -101 3 -101 75 -43 c63 -36 74
-46 72 -65 -5 -31 -13 -39 -64 -66 l-43 -24 -87 52 -88 51 0 79 c0 60 -3 79
-15 84 -8 3 -15 16 -15 30 0 19 -12 31 -55 55 -73 41 -75 68 -7 111 26 16 51
30 56 30 5 0 44 -21 87 -46z m-8003 -156 c3 -22 -5 -30 -52 -57 l-56 -31 0
-103 0 -102 -68 -37 c-37 -20 -85 -48 -107 -62 l-41 -25 -52 31 c-45 26 -53
34 -50 57 2 21 17 34 75 66 l72 40 1 101 0 101 88 51 87 51 50 -28 c36 -21 51
-35 53 -53z m7786 32 l85 -51 3 -102 3 -102 73 -40 c60 -33 72 -44 72 -65 0
-20 -12 -32 -55 -57 l-54 -32 -91 52 -90 52 0 76 c0 56 -4 80 -15 89 -8 7 -15
22 -15 34 -1 15 -16 30 -53 51 -74 43 -75 69 -5 112 29 18 54 32 55 33 0 0 40
-23 87 -50z m-7613 -109 c40 -25 46 -33 42 -56 -4 -19 -19 -33 -54 -51 -27
-13 -50 -28 -50 -32 -1 -8 -6 -105 -8 -169 -1 -31 -6 -43 -20 -48 -10 -3 -56
-28 -101 -55 -45 -28 -85 -50 -90 -50 -5 0 -30 12 -55 28 -40 23 -45 31 -43
56 3 26 13 35 76 69 l72 39 0 102 0 102 83 47 c45 25 87 46 92 46 6 1 31 -12
56 -28z m7397 -16 l77 -45 5 -103 5 -102 73 -43 c56 -34 72 -49 72 -67 0 -25
-7 -32 -67 -65 l-41 -23 -84 48 c-45 26 -85 49 -87 51 -2 2 -5 36 -8 76 -6
100 -30 146 -93 183 -68 40 -67 63 3 104 28 17 56 31 60 31 4 0 43 -20 85 -45z
m-7188 -104 c35 -21 46 -34 48 -57 3 -27 -2 -32 -48 -54 l-50 -23 0 -104 0
-104 -31 -17 c-17 -9 -67 -38 -111 -64 l-80 -47 -54 30 c-78 44 -75 66 17 119
38 23 72 47 74 53 3 7 6 51 8 99 1 48 7 92 13 98 12 12 157 99 164 99 3 0 25
-13 50 -28z m7008 -43 l42 -22 0 -103 0 -103 43 -21 c96 -50 116 -66 109 -93
-4 -15 -26 -38 -55 -56 l-48 -30 -90 52 -89 52 0 78 c0 58 -4 80 -14 84 -8 3
-16 18 -19 34 -5 21 -19 35 -57 56 -40 22 -50 32 -50 53 0 21 11 33 53 58 l52
32 40 -25 c22 -13 59 -34 83 -46z m-6787 -85 c39 -22 49 -33 49 -53 0 -21 -11
-32 -52 -56 l-53 -30 -5 -102 -5 -101 -104 -62 -104 -62 -54 29 c-44 24 -53
34 -53 56 0 23 11 32 75 68 l74 41 3 102 3 101 80 48 c44 26 84 47 89 48 4 0
30 -12 57 -27z m6533 -19 l81 -47 2 -76 c1 -42 2 -88 2 -103 1 -22 13 -33 76
-67 95 -53 99 -73 23 -120 -59 -37 -54 -38 -170 30 l-68 40 0 80 c0 62 -3 81
-15 85 -8 4 -15 16 -15 29 0 18 -13 31 -55 54 -73 41 -75 67 -7 109 26 17 51
31 56 31 4 1 45 -20 90 -45z m-6270 -144 c-1 -5 -2 -18 -2 -28 -1 -11 -21 -28
-49 -43 l-48 -24 -3 -102 c-2 -94 -5 -104 -25 -116 -12 -7 -61 -37 -109 -65
l-87 -52 -48 28 c-38 22 -49 34 -51 58 -2 27 4 32 70 69 l73 40 5 103 5 103
84 49 85 48 50 -29 c28 -16 51 -33 50 -39z m6081 3 l50 -29 5 -104 5 -103 73
-40 c60 -34 72 -45 72 -67 0 -20 -11 -32 -52 -57 l-53 -32 -65 36 c-124 69
-120 63 -120 154 0 43 -4 79 -9 79 -5 0 -12 12 -16 28 -4 19 -21 36 -58 57
-72 42 -71 67 2 111 l55 33 30 -18 c17 -11 54 -32 81 -48z m-5906 -93 c43 -27
48 -34 42 -56 -4 -17 -23 -34 -56 -52 l-50 -27 -3 -105 -3 -105 -57 -31 c-31
-16 -79 -43 -107 -58 l-50 -29 -50 30 c-77 45 -74 68 19 120 l75 43 3 102 3
102 80 47 c44 26 86 47 92 48 7 1 35 -13 62 -29z m5659 -15 l77 -45 5 -102 5
-103 76 -43 c68 -40 75 -47 71 -72 -3 -20 -16 -33 -56 -55 l-52 -28 -85 49
-84 50 -3 79 c-2 55 -7 82 -17 87 -7 5 -16 20 -19 36 -5 19 -20 34 -54 52 -38
20 -48 31 -50 55 -2 26 3 33 45 57 27 15 52 27 56 27 4 1 43 -19 85 -44z
m-5403 -161 c0 -25 -8 -33 -52 -57 l-53 -28 0 -102 -1 -102 -107 -62 -107 -61
-50 28 c-41 24 -50 34 -50 57 0 24 9 33 72 68 l72 40 1 101 0 102 88 50 87 50
50 -28 c42 -23 50 -32 50 -56z m5194 32 l74 -44 -2 -95 c-2 -108 -6 -101 89
-155 87 -50 89 -69 17 -117 l-54 -36 -91 53 -92 52 0 77 c0 54 -4 80 -14 89
-8 6 -16 21 -18 33 -2 13 -22 32 -55 52 -42 24 -53 35 -53 56 0 20 10 31 48
52 26 15 54 26 62 26 8 0 48 -19 89 -43z m-5018 -105 c62 -39 58 -69 -12 -109
l-49 -27 0 -101 0 -101 -88 -50 c-49 -28 -98 -57 -110 -64 -18 -11 -27 -10
-69 13 -39 22 -49 33 -51 57 -3 28 2 33 72 71 l76 42 0 101 1 102 82 47 c45
26 87 47 92 48 6 0 31 -13 56 -29z m4802 -21 l77 -45 0 -101 0 -101 78 -43
c69 -37 78 -46 74 -66 -3 -15 -23 -35 -56 -55 l-51 -32 -60 33 c-134 73 -125
63 -125 142 0 100 -20 141 -87 179 -72 41 -72 66 0 108 28 17 57 30 62 28 6
-1 45 -22 88 -47z m-4593 -101 c40 -25 50 -36 50 -58 0 -23 -9 -31 -55 -54
l-55 -27 0 -105 0 -105 -52 -26 c-29 -15 -77 -42 -106 -60 l-52 -34 -55 31
c-77 43 -76 66 8 113 34 20 68 40 76 45 11 7 16 39 20 112 l6 103 80 47 c44
26 81 47 82 48 2 1 25 -13 53 -30z m4408 -41 l42 -22 0 -103 0 -102 75 -42
c65 -35 75 -44 75 -68 0 -23 -10 -34 -50 -59 l-51 -32 -89 51 -90 50 0 80 c0
59 -4 81 -14 85 -8 3 -16 17 -19 32 -4 19 -20 36 -56 56 -77 45 -76 69 5 116
l49 28 40 -24 c22 -14 59 -34 83 -46z m-4187 -85 c40 -23 49 -33 49 -55 0 -22
-9 -32 -52 -55 l-53 -28 -5 -105 -5 -105 -31 -16 c-17 -8 -64 -35 -104 -58
l-73 -44 -53 29 c-44 23 -54 34 -54 55 0 21 12 32 75 67 l74 43 3 101 3 101
80 48 c44 27 84 48 89 49 4 0 30 -12 57 -27z m3929 -19 l79 -45 3 -102 3 -101
75 -43 c97 -55 102 -78 29 -123 -27 -16 -54 -30 -59 -30 -5 0 -48 23 -95 50
l-85 51 0 80 c0 62 -3 81 -15 85 -8 4 -15 16 -15 29 0 18 -13 31 -55 54 -73
41 -75 67 -7 109 26 17 51 31 55 31 4 1 44 -20 87 -45z m-3673 -132 c26 -16 2
-59 -48 -87 l-49 -26 0 -100 0 -99 -42 -26 c-24 -13 -73 -42 -110 -64 l-67
-40 -48 28 c-40 24 -48 33 -48 57 0 25 9 34 70 70 l70 41 5 102 5 102 85 49
84 50 41 -25 c22 -14 45 -28 52 -32z m3464 2 l78 -46 3 -101 3 -102 73 -40
c60 -33 72 -44 72 -65 0 -20 -12 -32 -54 -58 l-55 -32 -88 52 -88 53 -3 79
c-2 52 -8 83 -17 93 -8 8 -15 22 -15 31 0 10 -23 30 -53 47 -71 42 -73 65 -10
104 26 17 54 31 62 31 8 0 49 -21 92 -46z m-3286 -101 c39 -24 45 -32 43 -57
-2 -23 -13 -34 -53 -55 l-50 -26 -3 -108 c-1 -59 -6 -107 -10 -107 -4 0 -52
-25 -106 -56 l-99 -57 -44 24 c-25 13 -49 30 -55 37 -19 23 7 56 70 90 57 30
79 48 81 65 1 4 1 46 1 95 l0 87 83 47 c45 27 85 48 89 48 4 0 28 -12 53 -27z
m3064 -19 l81 -46 0 -98 c0 -111 -4 -105 106 -164 44 -24 50 -30 46 -54 -3
-21 -16 -34 -56 -56 l-52 -28 -69 38 c-105 56 -105 56 -105 139 0 51 -4 76
-14 85 -8 6 -16 21 -18 33 -2 14 -21 33 -55 52 -52 30 -67 52 -53 75 8 12 89
68 101 69 4 1 43 -20 88 -45z m-205 -133 l70 -41 -3 -50 c-1 -27 1 -74 4 -103
l7 -53 69 -37 c37 -21 70 -41 73 -46 13 -20 -11 -53 -56 -81 l-49 -30 -89 52
-90 52 0 77 c0 54 -4 80 -14 89 -8 6 -16 21 -18 33 -2 13 -22 32 -55 52 -41
23 -53 35 -53 55 0 20 12 32 53 56 33 20 58 28 67 23 8 -4 46 -25 84 -48z
m-2638 23 c38 -22 45 -31 42 -53 -2 -20 -15 -33 -55 -54 l-53 -28 0 -104 0
-105 -50 -25 c-28 -14 -75 -42 -106 -61 l-55 -35 -54 31 c-80 46 -77 67 20
122 l75 43 0 101 0 102 78 45 c42 24 85 45 95 46 10 0 39 -11 63 -25z m214
-123 c71 -43 64 -72 -29 -123 l-31 -17 0 -99 0 -99 -106 -62 c-58 -33 -109
-61 -114 -61 -4 0 -28 12 -54 26 -37 21 -46 31 -46 53 0 27 11 36 105 87 l40
22 5 103 5 102 80 48 c44 27 85 48 90 48 6 0 30 -13 55 -28z m2196 -18 c46
-27 83 -52 83 -58 -1 -5 -1 -51 0 -101 l1 -90 76 -43 c66 -38 75 -46 72 -69
-2 -18 -17 -34 -51 -55 -55 -34 -52 -34 -169 34 l-68 40 0 72 c0 97 -22 141
-91 180 -45 27 -50 32 -44 56 4 14 7 26 8 27 1 0 22 13 47 27 25 15 47 27 49
27 2 0 41 -21 87 -47z m-1986 -104 c40 -25 50 -36 50 -58 0 -23 -7 -31 -40
-46 -66 -30 -67 -31 -69 -171 l-1 -71 -106 -61 -107 -62 -48 28 c-42 23 -49
31 -49 57 0 27 8 34 73 70 l72 40 5 103 5 102 80 49 c44 27 81 49 82 50 2 1
25 -13 53 -30z m1848 -167 l3 -102 47 -26 c112 -64 111 -63 104 -89 -4 -14
-27 -37 -55 -55 l-48 -30 -67 37 c-127 69 -122 63 -122 154 0 43 -4 79 -9 79
-5 0 -11 13 -14 28 -4 21 -19 35 -56 56 -42 22 -51 32 -51 54 0 22 10 33 52
58 l51 31 81 -46 81 -47 3 -102z m-1628 41 c40 -23 50 -33 50 -55 0 -22 -9
-32 -52 -55 l-53 -28 -5 -104 -5 -105 -104 -59 -105 -60 -53 28 c-44 23 -53
32 -53 54 0 22 12 33 75 69 l75 42 0 100 0 99 83 50 c45 27 85 50 89 50 5 1
30 -11 58 -26z m1329 -19 c44 -25 81 -53 84 -62 2 -10 5 -56 6 -102 2 -96 1
-94 93 -141 49 -25 57 -32 55 -56 -2 -21 -13 -32 -57 -56 l-55 -30 -85 49 -85
49 -3 80 c-2 57 -7 82 -17 88 -8 4 -15 18 -15 30 0 17 -14 31 -52 53 -74 41
-76 69 -11 111 26 17 51 32 56 32 4 1 43 -20 86 -45z m-1076 -128 c34 -21 17
-58 -40 -89 l-53 -28 0 -102 0 -102 -93 -53 c-50 -29 -99 -58 -108 -64 -13 -9
-26 -5 -65 19 -40 24 -49 35 -49 58 0 25 9 35 70 70 l70 41 5 102 5 102 85 49
85 50 35 -22 c19 -11 43 -26 53 -31z m868 -2 l78 -46 3 -101 3 -102 72 -40
c60 -33 73 -44 73 -65 0 -20 -11 -33 -54 -59 l-54 -32 -89 53 -88 53 -3 75
c-2 44 -8 81 -16 90 -8 8 -16 24 -18 35 -2 11 -26 33 -55 50 -69 40 -71 64 -5
105 26 16 53 30 61 30 8 0 49 -21 92 -46z m-687 -101 c35 -22 45 -34 46 -55 0
-21 -9 -32 -47 -54 -27 -15 -50 -28 -52 -30 -2 -2 -5 -49 -6 -104 -1 -55 -4
-102 -6 -103 -2 -2 -35 -21 -74 -42 -38 -21 -84 -48 -101 -61 l-30 -22 -49 28
c-47 27 -72 61 -60 81 3 5 36 25 73 46 37 20 70 42 74 47 4 6 8 54 8 106 l0
95 83 47 c45 26 85 48 89 48 4 0 27 -12 52 -27z m469 -23 l77 -45 0 -101 0
-100 75 -43 c64 -36 75 -46 75 -70 0 -22 -9 -32 -54 -56 l-54 -29 -103 60
-104 59 -5 102 -5 102 -47 30 c-36 23 -48 37 -48 55 0 18 12 32 48 55 26 16
52 29 57 28 6 -1 45 -22 88 -47z"/>
</g>
</svg>
